<svg xmlns="http://www.w3.org/2000/svg" viewBox="0 0 1600 1100" role="img" aria-labelledby="t d">
<title id="t">Lord Murugan travelling with the sacred peacock</title><desc id="d">A symbolic devotional illustration with Murugan, Vel, peacock, temple clouds and divine radiance.</desc>
<defs><radialGradient id="halo"><stop stop-color="#fff8c7"/><stop offset=".45" stop-color="#ffbf4d" stop-opacity=".75"/><stop offset="1" stop-color="#7b1222" stop-opacity="0"/></radialGradient><linearGradient id="sky" x2="0" y2="1"><stop stop-color="#230a35"/><stop offset=".45" stop-color="#72192f"/><stop offset="1" stop-color="#f08b35"/></linearGradient><linearGradient id="peacock" x2="1" y2="1"><stop stop-color="#22b7a8"/><stop offset=".5" stop-color="#11659c"/><stop offset="1" stop-color="#36146f"/></linearGradient><filter id="glow"><feGaussianBlur stdDeviation="14"/></filter></defs>
<rect width="1600" height="1100" fill="url(#sky)"/><circle cx="1010" cy="310" r="330" fill="url(#halo)"/>
<g opacity=".35" fill="#fff4d2"><circle cx="220" cy="190" r="4"/><circle cx="380" cy="130" r="7"/><circle cx="560" cy="240" r="4"/><circle cx="1290" cy="180" r="6"/><circle cx="1420" cy="310" r="4"/></g>
<g transform="translate(40 530)"><path d="M90 390 C340 170 620 80 930 130 C1240 180 1430 320 1510 480 C1230 410 960 430 720 510 C480 590 250 570 90 390Z" fill="url(#peacock)"/><path d="M340 410 C520 250 760 220 980 300 C760 330 620 440 520 580 C450 530 390 470 340 410Z" fill="#0d7a78"/><path d="M975 260 C1060 190 1170 170 1260 210 C1170 250 1120 320 1090 410 C1030 360 995 315 975 260Z" fill="#154b8b"/><g fill="none" stroke="#f7d56a" stroke-width="16" opacity=".8"><path d="M230 430 Q510 220 810 350"/><path d="M400 500 Q710 260 1030 380"/><path d="M650 520 Q920 340 1260 430"/></g><g fill="#f9c85d" stroke="#082f62" stroke-width="10"><ellipse cx="380" cy="400" rx="28" ry="48"/><ellipse cx="585" cy="350" rx="28" ry="48"/><ellipse cx="790" cy="365" rx="28" ry="48"/><ellipse cx="975" cy="405" rx="28" ry="48"/><ellipse cx="1160" cy="450" rx="28" ry="48"/></g><path d="M1080 220 Q1180 80 1320 120 Q1230 180 1205 285Z" fill="#22b7a8"/><circle cx="1300" cy="122" r="24" fill="#f7d56a"/></g>
<g transform="translate(845 165)"><circle cx="165" cy="130" r="110" fill="#ffd781" opacity=".34" filter="url(#glow)"/><path d="M165 72 C210 72 238 108 230 151 C222 195 191 225 165 225 C139 225 108 195 100 151 C92 108 120 72 165 72Z" fill="#d88944"/><path d="M105 118 Q165 26 225 118 Q195 75 165 60 Q135 75 105 118Z" fill="#f2bd50"/><path d="M132 210 L198 210 L250 410 L80 410Z" fill="#f5a43b"/><path d="M78 276 Q20 315 5 400" fill="none" stroke="#d88944" stroke-width="26" stroke-linecap="round"/><path d="M250 276 Q320 290 370 350" fill="none" stroke="#d88944" stroke-width="26" stroke-linecap="round"/><path d="M300 110 L300 395" stroke="#ffd96f" stroke-width="16"/><path d="M300 52 L270 130 L330 130Z" fill="#fff1a6"/><path d="M115 410 Q165 500 215 410" fill="#f7d56a"/></g>
<g opacity=".82" fill="#2a092d"><path d="M0 1010 L0 900 L90 900 L90 820 L140 770 L190 820 L190 900 L285 900 L285 850 L340 805 L395 850 L395 900 L500 900 L500 1010Z"/><path d="M1120 1010 L1120 890 L1190 890 L1190 810 L1245 755 L1300 810 L1300 890 L1390 890 L1390 830 L1440 785 L1490 830 L1490 890 L1600 890 L1600 1010Z"/></g></svg>